<svg width="12" height="12" viewBox="0 0 12 12" fill="none" xmlns="http://www.w3.org/2000/svg">
<path d="M11.0306 9.96938C11.1715 10.1103 11.2506 10.3014 11.2506 10.5006C11.2506 10.6999 11.1715 10.891 11.0306 11.0319C10.8897 11.1728 10.6986 11.2519 10.4993 11.2519C10.3001 11.2519 10.109 11.1728 9.9681 11.0319L5.99997 7.0625L2.0306 11.0306C1.8897 11.1715 1.69861 11.2507 1.49935 11.2507C1.30009 11.2507 1.10899 11.1715 0.968098 11.0306C0.827202 10.8897 0.748047 10.6986 0.748047 10.4994C0.748047 10.3001 0.827202 10.109 0.968098 9.96813L4.93747 6L0.969348 2.03063C0.828451 1.88973 0.749297 1.69864 0.749297 1.49938C0.749297 1.30012 0.828451 1.10902 0.969348 0.968128C1.11024 0.827231 1.30134 0.748077 1.5006 0.748077C1.69986 0.748077 1.89095 0.827231 2.03185 0.968128L5.99997 4.9375L9.96935 0.967503C10.1102 0.826606 10.3013 0.747452 10.5006 0.747452C10.6999 0.747452 10.891 0.826606 11.0318 0.967503C11.1727 1.1084 11.2519 1.2995 11.2519 1.49875C11.2519 1.69801 11.1727 1.88911 11.0318 2.03L7.06247 6L11.0306 9.96938Z" fill="black"/>
</svg>
